<svg xmlns="http://www.w3.org/2000/svg" viewBox="0 0 100 100"><g fill="#A4A9AF"><g fill-rule="nonzero"><path d="M76 75.255c0 1.105-.892 2-1.992 2s-1.992-.895-1.992-2V69.33c0-5.44-4.394-9.73-9.813-9.73H37.798c-5.42 0-9.813 4.288-9.813 9.73v5.926c0 1.105-.892 2-1.992 2S24 76.36 24 75.255V69.33c0-7.65 6.177-13.73 13.798-13.73h24.405C69.823 55.6 76 61.68 76 69.33v5.926zm-26.202-25.55C42.177 49.704 36 43.502 36 35.852S42.177 22 49.798 22s13.798 6.202 13.798 13.852-6.177 13.852-13.798 13.852zm0-4c5.42 0 9.813-4.4 9.813-9.852S55.218 26 49.798 26s-9.813 4.4-9.813 9.852 4.394 9.852 9.813 9.852z"/></g></g></svg>